<svg width="394" height="501" viewBox="0 0 394 501" fill="none" xmlns="http://www.w3.org/2000/svg">
<path d="M374.734 282.198C367.369 269.564 358.638 257.629 350.172 245.548C341.093 232.572 331.985 219.7 329.577 204.252C327.403 190.428 329.819 176.594 332.857 162.973C336.07 148.632 339.762 134.373 340.72 119.78C341.313 110.609 340.746 101.347 340.013 92.1929C339.237 82.803 337.986 73.4316 335.956 64.1588C332.305 47.3656 325.818 27.6228 308.961 17.5026C305.862 15.6516 302.443 14.3232 298.907 13.4755C287.17 5.56934 273.179 0.880335 257.826 0.495738C236.584 -0.0321712 215.709 7.07745 197.286 15.9955C175.825 26.3589 156.391 39.8737 138.357 54.3879C120.916 68.4027 104.677 83.5948 89.6614 99.6231C76.3095 113.852 64.0748 128.819 53.7543 144.901C39.2669 167.473 28.0067 191.686 19.4544 216.439C1.76568 267.533 -5.27415 323.073 6.10311 375.612C11.4183 400.162 21.1724 424.3 36.8184 445.18C50.0249 462.823 68.6986 476.783 90.3425 485.832C135.462 504.673 188.911 503.496 236.895 493.896C261.259 489.03 285.047 481.637 307.517 471.846C329.955 462.09 352.598 449.776 368.021 431.997C385.073 412.386 390.938 388.486 392.577 364.344C393.546 350.023 393.732 335.664 390.763 321.53C387.843 307.769 381.989 294.633 374.734 282.198Z" fill="#C5E1A5"/>
</svg>
