<svg width="242" height="185" viewBox="0 0 242 185" fill="none" xmlns="http://www.w3.org/2000/svg">
<path d="M6.73515 75.5588C9.11056 92.1224 12.7611 108.423 20.6558 122.62C35.4846 149.297 61.7189 170.576 86.9925 179.9C116.039 190.61 146.29 179.532 173.276 166.65C197.379 155.152 219.561 137.677 231.019 108.879C244.101 75.9795 242.722 37.5416 240.713 1.87295C240.591 -0.423163 237.604 -0.300564 237.744 1.99555C239.42 31.6522 240.608 62.4131 233.499 91.1058C225.622 122.918 206.444 144.6 181.852 158.342C157.119 172.153 126.274 185.299 98.5552 179.568C72.4432 174.169 46.0342 154.03 28.9348 129.824C17.7913 114.049 12.6213 95.4176 9.7394 75.4361C6.82254 55.2268 4.779 34.8248 2.97998 14.4753C2.77038 12.1967 -0.199008 12.3018 0.0105872 14.5979C1.82708 34.9649 3.87072 55.3671 6.77012 75.5588H6.73515Z" fill="#DAB692"/>
<path d="M30.6459 111.035C39.7119 139.002 57.9483 156.432 81.5547 165.26C128.68 182.881 186.528 167.51 210.989 113.303C225.372 81.4281 225.791 40.8992 226 5.3427C226.035 -0.379838 218.625 -0.0483624 218.573 5.65673C218.381 35.543 217.875 67.8544 209.228 96.1182C201.731 120.579 186.179 139.927 166.757 151.407C126.641 175.117 58.2274 166.865 38.6135 111.14C27.5775 79.7705 26.9323 43.4813 25.4329 10.1406C25.1714 4.43547 17.7618 4.73205 18.0059 10.4546C19.5053 43.7256 20.4119 79.4565 30.6285 111.053L30.6459 111.035Z" fill="#DAB692"/>
<path d="M84.6898 148.136C105.298 157.508 130.966 154.611 151.888 148.991C173.909 143.075 187.834 125.868 196.628 101.733C207.813 71.0193 211.879 36.9895 209.209 3.50059C208.843 -1.03673 202.91 -0.809838 203.277 3.74493C205.999 37.6701 201.811 72.6947 189.474 103.322C183.402 118.417 174.781 131.47 161.52 138.014C149.375 144 135.642 145.309 122.59 146.234C108.63 147.229 94.1822 146.443 81.3743 138.713C70.2241 131.959 61.2551 121.035 54.5545 108.557C38.6929 79.0993 36.7735 43.2544 34.9413 9.46887C34.697 4.9141 28.7466 5.14099 29.0084 9.71321C31.748 60.2694 38.2916 127.003 84.7247 148.136H84.6898Z" fill="#DAB692"/>
<path d="M62.792 101.855C77.9749 124.428 101.866 131.813 124.954 133.053C135.949 133.646 147.449 132.756 157.484 127.134C168.618 120.884 175.459 108.96 180.974 96.2682C192.928 68.8063 197.745 37.5035 195.441 6.51501C195.11 1.95839 189.159 2.18537 189.508 6.75945C191.567 34.4832 187.832 62.4165 177.937 87.4866C172.981 100.022 166.925 113.255 156.28 119.924C146.716 125.912 135.303 126.523 124.658 125.965C102.041 124.743 78.5858 117.043 64.9387 93.5621C50.9774 69.5394 49.3893 39.6858 47.9408 11.6129C47.7139 7.05629 41.763 7.28317 42.0073 11.8572C43.5954 42.8632 45.707 76.4529 62.792 101.855Z" fill="#DAB692"/>
<path d="M73.3924 85.3199C86.3977 100.746 107.631 106.879 125.169 108.835C143.806 110.914 161.413 104.59 170.723 84.1668C181.2 61.1579 181.967 30.5319 180.346 4.8675C180.207 2.57885 177.243 2.70115 177.382 4.98981C178.864 28.4704 178.062 54.3968 170.514 76.305C162.233 100.362 143.753 107.979 123.095 105.027C106.899 102.703 87.3216 97.095 75.3971 82.7167C60.7705 65.0713 58.173 34.6201 57.9638 11.2443C57.9463 8.95567 54.9826 9.07798 55.0001 11.3666C55.2093 35.6334 58.0683 67.133 73.4097 85.3199H73.3924Z" fill="#DAB692"/>
<path d="M76.1337 74.9393C88.3253 90.1128 106.534 93.7748 123.251 93.1441C139.162 92.5483 158.932 93.0915 166.931 73.8354C175.193 53.9487 174.947 27.4213 172.527 5.85244C172.263 3.59218 169.281 3.69732 169.544 5.97511C171.755 25.564 171.614 46.6773 166.492 65.5303C163.668 75.9555 158.493 84.103 149.143 86.556C140.811 88.7462 131.654 89.2544 123.111 89.5873C107.534 90.183 90.5181 87.0642 78.9053 73.2398C66.3453 58.2765 66.8891 34.1145 64.9946 14.5782C64.7665 12.3004 61.7844 12.4229 62.0124 14.7007C63.9596 34.7452 63.5386 59.2752 76.1512 74.9393H76.1337Z" fill="#DAB692"/>
<path d="M86.6413 63.6844C94.9669 77.9283 107.429 83.1016 121.539 82.0879C135.228 81.1092 148.69 77.7535 155.455 62.2688C162.869 45.2809 159.732 25.2522 160.994 6.84871C161.152 4.57667 158.172 4.7164 158.014 6.97095C156.98 22.0712 159.066 37.958 155.455 52.6388C150.635 72.1958 137.314 77.404 121.399 78.54C106.938 79.5712 94.9669 73.7688 87.3949 58.4762C80.2261 44.0051 79.6126 26.7902 78.9816 10.5539C78.894 8.26435 75.9143 8.38659 76.0019 10.6761C76.703 28.7825 77.597 48.1821 86.6588 63.6844H86.6413Z" fill="#DAB692"/>
<path d="M123.922 70.1422C151.435 67.9264 153.16 27.4311 151.592 2.86529C151.453 0.579688 148.473 0.701833 148.63 2.98743C150.059 25.5294 149.431 64.4544 123.765 66.583C98.7439 68.6593 92.9938 31.0602 90.9726 9.30336C90.7635 7.03521 87.8015 7.13991 88.0106 9.42551C90.206 33.2062 97.106 72.2882 123.922 70.1248V70.1422Z" fill="#DAB692"/>
<path d="M120.682 53.2073C140.489 53.5745 143 26.1406 143 7.8689C143 5.57838 140.036 5.70068 140.036 7.9912C140.036 23.9899 138.362 50.06 120.543 49.6578C104.833 49.2906 98.2423 29.725 99.0269 13.5864C99.1315 11.3134 96.1675 11.4533 96.0629 13.7088C95.1911 31.9456 103.386 52.8926 120.7 53.2073H120.682Z" fill="#DAB692"/>
<path d="M123.938 36.8627C132.75 34.7877 137.386 22.7008 133.759 13.3288C132.962 11.2711 130.096 12.3086 130.892 14.3836C134.13 22.7873 129.654 33.0585 121.532 33.4216C112.72 33.8193 106.492 24.4646 104.9 15.179C104.528 12.9657 101.662 14.0204 102.033 16.2338C103.98 27.5771 113.11 39.4045 123.921 36.8627H123.938Z" fill="#DAB692"/>
<path d="M120.057 28.1873C126.444 27.9262 130.511 19.3439 128.469 12.398C127.828 10.2394 125.024 11.2839 125.665 13.4599C127.067 18.2298 124.401 24.4619 119.901 24.6534C115.401 24.8449 112.148 19.0131 113.117 14.0866C113.549 11.8757 110.676 11.0576 110.244 13.2684C108.842 20.4232 113.671 28.4659 120.057 28.2047V28.1873Z" fill="#DAB692"/>
</svg>
