<svg width="227" height="310" viewBox="0 0 227 310" fill="none" xmlns="http://www.w3.org/2000/svg">
<path d="M146.557 7.91629C131.033 13.4463 115.501 19.0863 100.037 25.9163C92.3048 29.3263 84.5888 33.0463 76.9128 37.2163C69.2368 41.3963 61.5928 46.0363 54.0288 51.4463C46.4688 56.8763 38.9768 63.0563 31.7048 70.7163C28.0728 74.5563 24.4968 78.7763 21.0288 83.5463C19.3088 85.9963 17.5928 88.4763 15.9488 91.2463C15.1128 92.5763 14.3128 94.0563 13.5008 95.4763C13.0968 96.2063 12.7088 96.9763 12.3128 97.7263C11.9168 98.4763 11.5248 99.2363 11.1448 100.046C9.59278 103.166 8.14878 106.636 6.78878 110.296C5.42478 113.956 4.20878 117.986 3.16478 122.296L2.77278 123.906C2.64478 124.456 2.53678 125.026 2.42078 125.576C2.19678 126.706 1.93679 127.786 1.75279 128.976C1.56079 130.146 1.34078 131.296 1.16878 132.486C1.01678 133.696 0.836795 134.896 0.708795 136.126C0.164795 141.016 -0.083214 146.146 0.024786 151.246C0.128786 156.336 0.568783 161.386 1.29678 166.116C2.02478 170.846 3.00879 175.296 4.14879 179.426C6.44078 187.686 9.30479 194.766 12.3768 201.026C13.9168 204.166 15.5088 207.106 17.1408 209.916C18.7768 212.696 20.4488 215.346 22.1448 217.876C23.8448 220.396 25.5728 222.786 27.3128 225.106C29.0608 227.386 30.8248 229.606 32.6048 231.716C39.7328 240.166 47.0808 247.316 54.5288 253.666C69.4328 266.326 84.7408 275.886 100.185 283.126C115.593 290.946 131.197 296.236 146.825 300.116C162.457 304.006 178.133 306.556 193.801 308.706C200.677 309.626 200.689 308.696 193.821 307.756C178.233 305.566 162.617 302.936 147.029 298.936C131.445 294.946 115.881 289.516 100.501 281.566C85.0808 274.166 69.8128 264.466 54.9528 251.666C47.5288 245.246 40.2088 238.016 33.1288 229.546C29.5928 225.296 26.1168 220.716 22.7568 215.686C21.0808 213.156 19.4248 210.526 17.8128 207.756C16.2048 204.966 14.6368 202.036 13.1288 198.946C10.1128 192.756 7.33279 185.806 5.13279 177.826C4.04079 173.836 3.10879 169.586 2.42479 165.096C1.74079 160.616 1.34079 155.886 1.25279 151.126C1.16479 146.366 1.40078 141.576 1.92078 136.976C2.04478 135.826 2.2168 134.706 2.3608 133.566C2.5248 132.446 2.73278 131.366 2.91678 130.266C3.08878 129.156 3.34479 128.126 3.55679 127.046C3.66879 126.516 3.77278 125.976 3.89678 125.456L4.27278 123.916C5.27678 119.816 6.44879 115.966 7.77679 112.446C9.09679 108.926 10.5048 105.566 12.0248 102.546C13.5328 99.4863 15.1048 96.6163 16.7408 93.9763C18.3608 91.2763 20.0528 88.8463 21.7528 86.4563C25.1768 81.7863 28.7248 77.6463 32.3328 73.8663C39.5528 66.3363 47.0128 60.2563 54.5448 54.8863C62.0808 49.5463 69.7048 44.9563 77.3568 40.8163C85.0128 36.6763 92.7048 32.9863 100.413 29.5863C115.829 22.7763 131.309 17.0963 146.765 11.4663C153.041 9.1763 157.809 7.21631 161.017 5.68631C164.225 4.15631 165.873 3.0763 165.917 2.6163C165.961 2.1463 164.405 2.31629 161.197 3.16629C157.989 4.04629 153.125 5.57629 146.557 7.91629Z" fill="#EFF1F0"/>
<path d="M158.994 5.55691C143.47 11.0869 127.938 16.7269 112.474 23.5569C104.742 26.9669 97.0263 30.6869 89.3503 34.8569C81.6743 39.0369 74.0303 43.6769 66.4663 49.0869C58.9063 54.5169 51.4143 60.6969 44.1423 68.3569C40.5103 72.1969 36.9343 76.4169 33.4663 81.1869C31.7463 83.6369 30.0303 86.1169 28.3863 88.8869C27.5503 90.2169 26.7503 91.6969 25.9383 93.1169C25.5343 93.8469 25.1463 94.6169 24.7503 95.3669C24.3543 96.1169 23.9623 96.8769 23.5823 97.6869C22.0303 100.807 20.5863 104.277 19.2263 107.937C17.8623 111.597 16.6463 115.627 15.6023 119.937L15.2103 121.547C15.0823 122.097 14.9743 122.667 14.8583 123.217C14.6343 124.347 14.3743 125.427 14.1903 126.617C13.9983 127.787 13.7783 128.937 13.6063 130.127C13.4543 131.337 13.2743 132.537 13.1463 133.767C12.6023 138.657 12.3543 143.787 12.4623 148.887C12.5663 153.977 13.0063 159.027 13.7343 163.757C14.4623 168.487 15.4463 172.937 16.5863 177.067C18.8783 185.327 21.7423 192.407 24.8143 198.667C26.3543 201.807 27.9463 204.747 29.5783 207.557C31.2143 210.337 32.8863 212.987 34.5823 215.517C36.2823 218.037 38.0103 220.427 39.7503 222.747C41.4983 225.027 43.2623 227.247 45.0423 229.357C52.1703 237.807 59.5183 244.957 66.9663 251.307C81.8703 263.967 97.1783 273.527 112.622 280.767C128.03 288.587 143.634 293.877 159.262 297.757C174.894 301.647 190.57 304.197 206.238 306.347C213.114 307.267 213.126 306.337 206.258 305.397C190.67 303.207 175.054 300.577 159.466 296.577C143.882 292.587 128.318 287.157 112.938 279.207C97.5183 271.807 82.2503 262.107 67.3903 249.307C59.9663 242.887 52.6463 235.657 45.5663 227.187C42.0303 222.937 38.5543 218.357 35.1943 213.327C33.5183 210.797 31.8623 208.167 30.2503 205.397C28.6423 202.607 27.0743 199.677 25.5663 196.587C22.5503 190.397 19.7703 183.447 17.5703 175.467C16.4783 171.477 15.5463 167.227 14.8623 162.737C14.1783 158.257 13.7783 153.527 13.6903 148.767C13.6023 144.007 13.8383 139.217 14.3583 134.617C14.4823 133.467 14.6543 132.347 14.7983 131.207C14.9623 130.087 15.1703 129.007 15.3543 127.907C15.5263 126.797 15.7823 125.767 15.9943 124.687C16.1063 124.157 16.2103 123.617 16.3343 123.097L16.7103 121.557C17.7143 117.467 18.8863 113.607 20.2143 110.087C21.5343 106.567 22.9423 103.207 24.4623 100.187C25.9703 97.1269 27.5423 94.2569 29.1783 91.6169C30.7983 88.9169 32.4903 86.4869 34.1903 84.0969C37.6143 79.4269 41.1623 75.2869 44.7703 71.5069C51.9903 63.9769 59.4503 57.8969 66.9823 52.5269C74.5183 47.1869 82.1423 42.5969 89.7943 38.4569C97.4503 34.3169 105.142 30.6269 112.85 27.2269C128.266 20.4169 143.746 14.7369 159.202 9.1069C165.478 6.8169 170.246 4.8569 173.454 3.3269C176.662 1.7969 178.31 0.716924 178.354 0.256924C178.398 -0.213076 176.842 -0.0430883 173.634 0.806912C170.422 1.69691 165.562 3.22691 158.994 5.55691Z" fill="#EFF1F0"/>
<path d="M167.135 7.91629C151.611 13.4463 136.079 19.0863 120.615 25.9163C112.883 29.3263 105.167 33.0463 97.4909 37.2163C89.8149 41.3963 82.1709 46.0363 74.6069 51.4463C67.0469 56.8763 59.5549 63.0563 52.2829 70.7163C48.6509 74.5563 45.0749 78.7763 41.6069 83.5463C39.8869 85.9963 38.1709 88.4763 36.5269 91.2463C35.6909 92.5763 34.8909 94.0563 34.0789 95.4763C33.6749 96.2063 33.2869 96.9763 32.8909 97.7263C32.4949 98.4763 32.1029 99.2363 31.7229 100.046C30.1709 103.166 28.7269 106.636 27.3669 110.296C26.0029 113.956 24.7869 117.986 23.7429 122.296L23.3509 123.906C23.2229 124.456 23.1149 125.026 22.9989 125.576C22.7749 126.706 22.5149 127.786 22.3309 128.976C22.1389 130.146 21.9189 131.296 21.7469 132.486C21.5949 133.696 21.4149 134.896 21.2869 136.126C20.7429 141.016 20.4949 146.146 20.6029 151.246C20.7069 156.336 21.1469 161.386 21.8749 166.116C22.6029 170.846 23.5869 175.296 24.7269 179.426C27.0189 187.686 29.8829 194.766 32.9549 201.026C34.4949 204.166 36.0869 207.106 37.7189 209.916C39.3549 212.696 41.0269 215.346 42.7229 217.876C44.4229 220.396 46.1509 222.786 47.8909 225.106C49.6389 227.386 51.4029 229.606 53.1829 231.716C60.3109 240.166 67.6589 247.316 75.1069 253.666C90.0109 266.326 105.319 275.886 120.763 283.126C136.171 290.946 151.775 296.236 167.403 300.116C183.035 304.006 198.711 306.556 214.379 308.706C221.255 309.626 221.267 308.696 214.399 307.756C198.811 305.566 183.195 302.936 167.607 298.936C152.023 294.946 136.459 289.516 121.079 281.566C105.659 274.166 90.3909 264.466 75.5309 251.666C68.1069 245.246 60.7869 238.016 53.7069 229.546C50.1709 225.296 46.6949 220.716 43.3349 215.686C41.6589 213.156 40.0029 210.526 38.3909 207.756C36.7829 204.966 35.2149 202.036 33.7069 198.946C30.6909 192.756 27.9109 185.806 25.7109 177.826C24.6189 173.836 23.6869 169.586 23.0029 165.096C22.3189 160.616 21.9189 155.886 21.8309 151.126C21.7429 146.366 21.9789 141.576 22.4989 136.976C22.6229 135.826 22.7949 134.706 22.9389 133.566C23.1029 132.446 23.3109 131.366 23.4949 130.266C23.6669 129.156 23.9229 128.126 24.1349 127.046C24.2469 126.516 24.3509 125.976 24.4749 125.456L24.8509 123.916C25.8549 119.826 27.0269 115.966 28.3549 112.446C29.6749 108.926 31.0829 105.566 32.6029 102.546C34.1109 99.4863 35.6829 96.6163 37.3189 93.9763C38.9389 91.2763 40.6309 88.8463 42.3309 86.4563C45.7549 81.7863 49.3029 77.6463 52.9109 73.8663C60.1309 66.3363 67.5909 60.2563 75.1229 54.8863C82.6589 49.5463 90.2829 44.9563 97.9349 40.8163C105.591 36.6763 113.283 32.9863 120.991 29.5863C136.407 22.7763 151.887 17.0963 167.343 11.4663C173.619 9.1763 178.387 7.21631 181.595 5.68631C184.803 4.15631 186.451 3.0763 186.495 2.6163C186.539 2.1463 184.983 2.31629 181.775 3.16629C178.563 4.04629 173.699 5.57629 167.135 7.91629Z" fill="#EFF1F0"/>
<path d="M135.864 27.0166C124.268 30.6266 112.776 36.1466 101.444 43.2766C90.1199 50.4566 78.9319 59.2066 68.1119 70.4066C62.7079 76.0366 57.3959 82.2866 52.3079 89.6366C49.7679 93.3166 47.2839 97.2866 44.9119 101.667C42.5439 106.057 40.2759 110.867 38.2759 116.397C36.2879 121.907 34.5199 128.207 33.5599 135.497C33.3159 137.307 33.1359 139.187 33.0239 141.087C32.8999 142.987 32.8599 144.927 32.8799 146.857C32.9199 150.727 33.2759 154.547 33.8439 158.097C34.4319 161.637 35.2159 164.927 36.1359 167.917C37.0559 170.907 38.0919 173.627 39.1959 176.147C41.4039 181.167 43.8519 185.387 46.3879 189.147C51.4719 196.647 56.8879 202.437 62.3799 207.517C63.7559 208.787 65.1239 210.017 66.5279 211.127C67.9279 212.237 69.3159 213.447 70.7199 214.487C73.5519 216.367 76.3679 218.417 79.2279 219.957C90.6239 226.567 102.148 231.427 113.68 235.897C136.756 244.757 159.94 251.477 183.072 258.557C188.144 260.137 188.188 259.217 183.12 257.607C160.1 250.467 136.968 243.477 113.924 234.287C102.408 229.647 90.8959 224.607 79.5399 217.827C76.6879 216.247 73.8919 214.177 71.0799 212.247C70.7279 212.017 70.3799 211.737 70.0359 211.447L68.9999 210.587L66.9279 208.857C65.5439 207.737 64.1679 206.487 62.8039 205.197C57.3519 200.057 51.9839 194.227 46.9999 186.767C44.5159 183.037 42.1279 178.867 40.0119 173.987C37.9039 169.127 36.0519 163.467 34.9919 156.927C34.4799 153.657 34.1679 150.217 34.1399 146.727C34.1039 143.247 34.3359 139.757 34.7879 136.437C35.6799 129.757 37.3599 123.807 39.2879 118.547C41.2279 113.267 43.4439 108.597 45.7719 104.337C48.1039 100.077 50.5599 96.2066 53.0719 92.5966C58.1079 85.4066 63.3879 79.2566 68.7559 73.7166C79.5119 62.6866 90.6439 54.0366 101.896 46.9066C113.156 39.8166 124.564 34.2866 136.044 30.5866C140.708 29.1366 144.26 28.0266 146.664 27.2766C149.064 26.4766 150.312 25.8866 150.356 25.4266C150.4 24.9866 149.24 24.6966 146.832 24.8066C144.424 24.9566 140.768 25.5066 135.864 27.0166Z" fill="#EFF1F0"/>
<path d="M150.965 27.0166C139.369 30.6266 127.877 36.1466 116.545 43.2766C105.221 50.4566 94.0334 59.2066 83.2134 70.4066C77.8094 76.0366 72.4975 82.2866 67.4095 89.6366C64.8695 93.3166 62.3854 97.2866 60.0134 101.667C57.6454 106.057 55.3775 110.867 53.3775 116.397C51.3895 121.907 49.6215 128.207 48.6615 135.497C48.4175 137.307 48.2375 139.187 48.1255 141.087C48.0015 142.987 47.9615 144.927 47.9815 146.857C48.0215 150.727 48.3774 154.547 48.9454 158.097C49.5334 161.637 50.3175 164.927 51.2375 167.917C52.1575 170.907 53.1934 173.627 54.2974 176.147C56.5054 181.167 58.9534 185.387 61.4894 189.147C66.5734 196.647 71.9895 202.437 77.4815 207.517C78.8575 208.787 80.2255 210.017 81.6295 211.127C83.0295 212.237 84.4174 213.447 85.8214 214.487C88.6534 216.367 91.4695 218.417 94.3295 219.957C105.725 226.567 117.249 231.427 128.781 235.897C151.857 244.757 175.041 251.477 198.173 258.557C203.245 260.137 203.289 259.217 198.221 257.607C175.201 250.467 152.069 243.477 129.025 234.287C117.509 229.647 105.997 224.607 94.6414 217.827C91.7894 216.247 88.9935 214.177 86.1815 212.247C85.8295 212.017 85.4815 211.737 85.1375 211.447L84.1015 210.587L82.0295 208.857C80.6455 207.737 79.2695 206.487 77.9055 205.197C72.4535 200.057 67.0855 194.227 62.1015 186.767C59.6175 183.037 57.2294 178.867 55.1134 173.987C53.0054 169.127 51.1534 163.467 50.0934 156.927C49.5814 153.657 49.2694 150.217 49.2414 146.727C49.2054 143.247 49.4374 139.757 49.8894 136.437C50.7814 129.757 52.4614 123.807 54.3894 118.547C56.3294 113.267 58.5454 108.597 60.8734 104.337C63.2054 100.077 65.6614 96.2066 68.1734 92.5966C73.2094 85.4066 78.4895 79.2566 83.8575 73.7166C94.6135 62.6866 105.745 54.0366 116.997 46.9066C128.257 39.8166 139.665 34.2866 151.145 30.5866C155.809 29.1366 159.361 28.0266 161.765 27.2766C164.165 26.4766 165.413 25.8866 165.457 25.4266C165.501 24.9866 164.341 24.6966 161.933 24.8066C159.525 24.9566 155.869 25.5066 150.965 27.0166Z" fill="#EFF1F0"/>
<path d="M141.151 53.4455C131.967 58.1655 122.807 63.4155 113.803 70.2255C109.303 73.6355 104.839 77.3855 100.471 81.8255C98.2787 83.9955 96.1267 86.4255 93.9947 88.9755C91.8707 91.5555 89.7868 94.3755 87.7548 97.4155C85.7348 100.525 83.7747 103.895 81.9187 107.635C80.0667 111.385 78.3468 115.585 76.8308 120.245L76.2627 121.995L75.7427 123.846C75.3947 125.076 75.0467 126.295 74.7387 127.615C74.1147 130.225 73.5787 132.995 73.1907 135.925C72.8027 138.855 72.5827 141.965 72.5707 145.105C72.5587 148.245 72.7947 151.386 73.2107 154.336C73.6427 157.276 74.2587 160.005 74.9867 162.475C75.7227 164.935 76.5628 167.166 77.4588 169.196C79.2588 173.246 81.2787 176.536 83.3667 179.396C87.5547 185.106 92.0268 189.155 96.5468 192.525C105.607 199.175 114.951 202.925 124.299 205.275C133.647 207.695 143.027 209.106 152.411 209.826C157.103 210.186 161.799 210.355 166.491 210.365C171.187 210.375 175.875 210.215 180.563 210.025C189.939 209.645 199.315 209.015 208.679 208.155C212.787 207.765 212.771 206.836 208.667 207.206C199.347 208.016 190.003 208.546 180.647 208.805C175.971 208.925 171.287 209.016 166.603 208.936C161.919 208.846 157.231 208.595 152.547 208.155C143.175 207.265 133.807 205.666 124.479 203.066C115.155 200.536 105.863 196.615 96.8988 189.845C92.4308 186.415 88.0267 182.326 83.9627 176.686C81.9387 173.866 79.9987 170.645 78.3107 166.785C77.4667 164.855 76.6908 162.765 76.0268 160.495C75.3668 158.215 74.8268 155.746 74.4548 153.146C74.0988 150.536 73.8988 147.795 73.9268 145.045C73.9468 142.295 74.1467 139.545 74.5107 136.905C74.8707 134.265 75.3707 131.725 75.9627 129.305C76.2467 128.085 76.5907 126.935 76.9187 125.765C77.0867 125.185 77.2427 124.595 77.4187 124.025L77.9667 122.365C79.4227 117.955 81.0867 113.945 82.8867 110.335C84.6907 106.745 86.6107 103.486 88.5867 100.476C90.5787 97.5155 92.6308 94.7855 94.7228 92.2555C96.8268 89.7755 98.9467 87.3955 101.115 85.2555C105.431 80.8955 109.859 77.1955 114.319 73.8155C123.247 67.0655 132.339 61.7855 141.451 56.9755C148.859 53.1255 152.695 50.5255 152.715 49.6055C152.727 48.7455 148.931 49.5155 141.151 53.4455Z" fill="#EFF1F0"/>
<path d="M148.979 53.4455C139.795 58.1655 130.635 63.4155 121.631 70.2255C117.131 73.6355 112.667 77.3855 108.299 81.8255C106.107 83.9955 103.955 86.4255 101.823 88.9755C99.6989 91.5555 97.6149 94.3755 95.5829 97.4155C93.5629 100.525 91.6029 103.895 89.7469 107.635C87.8949 111.385 86.1749 115.585 84.6589 120.245L84.0909 121.995L83.5709 123.846C83.2229 125.076 82.8749 126.295 82.5669 127.615C81.9429 130.225 81.4069 132.995 81.0189 135.925C80.6309 138.855 80.4109 141.965 80.3989 145.105C80.3869 148.245 80.6229 151.386 81.0389 154.336C81.4709 157.276 82.0869 160.005 82.8149 162.475C83.5509 164.935 84.3909 167.166 85.2869 169.196C87.0869 173.246 89.1069 176.536 91.1949 179.396C95.3829 185.106 99.8549 189.155 104.375 192.525C113.435 199.175 122.779 202.925 132.127 205.275C141.475 207.695 150.855 209.106 160.239 209.826C164.931 210.186 169.627 210.355 174.319 210.365C179.015 210.375 183.703 210.215 188.391 210.025C197.767 209.645 207.143 209.015 216.507 208.155C220.615 207.765 220.599 206.836 216.495 207.206C207.175 208.016 197.831 208.546 188.475 208.805C183.799 208.925 179.115 209.016 174.431 208.936C169.747 208.846 165.059 208.595 160.375 208.155C151.003 207.265 141.635 205.666 132.307 203.066C122.983 200.536 113.691 196.615 104.727 189.845C100.259 186.415 95.8549 182.326 91.7909 176.686C89.7669 173.866 87.8269 170.645 86.1389 166.785C85.2949 164.855 84.5189 162.765 83.8549 160.495C83.1949 158.215 82.6549 155.746 82.2829 153.146C81.9269 150.536 81.7269 147.795 81.7549 145.045C81.7749 142.295 81.9749 139.545 82.3389 136.905C82.6989 134.265 83.1989 131.725 83.7909 129.305C84.0749 128.085 84.4189 126.935 84.7469 125.765C84.9149 125.185 85.0709 124.595 85.2469 124.025L85.7949 122.365C87.2509 117.955 88.9149 113.945 90.7149 110.335C92.5189 106.745 94.4389 103.486 96.4149 100.476C98.4069 97.5155 100.459 94.7855 102.551 92.2555C104.655 89.7755 106.775 87.3955 108.943 85.2555C113.259 80.8955 117.687 77.1955 122.147 73.8155C131.075 67.0655 140.167 61.7855 149.279 56.9755C156.687 53.1255 160.523 50.5255 160.543 49.6055C160.555 48.7455 156.759 49.5155 148.979 53.4455Z" fill="#EFF1F0"/>
<path d="M156.002 53.4455C146.818 58.1655 137.658 63.4155 128.654 70.2255C124.154 73.6355 119.69 77.3855 115.322 81.8255C113.13 83.9955 110.978 86.4255 108.846 88.9755C106.722 91.5555 104.638 94.3755 102.606 97.4155C100.586 100.525 98.6263 103.895 96.7703 107.635C94.9183 111.385 93.1983 115.585 91.6823 120.245L91.1143 121.995L90.5943 123.846C90.2463 125.076 89.8983 126.295 89.5903 127.615C88.9663 130.225 88.4303 132.995 88.0423 135.925C87.6543 138.855 87.4343 141.965 87.4223 145.105C87.4103 148.245 87.6463 151.386 88.0623 154.336C88.4943 157.276 89.1103 160.005 89.8383 162.475C90.5743 164.935 91.4143 167.166 92.3103 169.196C94.1103 173.246 96.1303 176.536 98.2183 179.396C102.406 185.106 106.878 189.155 111.398 192.525C120.458 199.175 129.802 202.925 139.15 205.275C148.498 207.695 157.878 209.106 167.262 209.826C171.954 210.186 176.65 210.355 181.342 210.365C186.038 210.375 190.726 210.215 195.414 210.025C204.79 209.645 214.166 209.015 223.53 208.155C227.638 207.765 227.622 206.836 223.518 207.206C214.198 208.016 204.854 208.546 195.498 208.805C190.822 208.925 186.138 209.016 181.454 208.936C176.77 208.846 172.082 208.595 167.398 208.155C158.026 207.265 148.658 205.666 139.33 203.066C130.006 200.536 120.714 196.615 111.75 189.845C107.282 186.415 102.878 182.326 98.8143 176.686C96.7903 173.866 94.8503 170.645 93.1623 166.785C92.3183 164.855 91.5423 162.765 90.8783 160.495C90.2183 158.215 89.6783 155.746 89.3063 153.146C88.9503 150.536 88.7503 147.795 88.7783 145.045C88.7983 142.295 88.9983 139.545 89.3623 136.905C89.7223 134.265 90.2223 131.725 90.8143 129.305C91.0983 128.085 91.4423 126.935 91.7703 125.765C91.9383 125.185 92.0943 124.595 92.2703 124.025L92.8183 122.365C94.2743 117.955 95.9383 113.945 97.7383 110.335C99.5423 106.745 101.462 103.486 103.438 100.476C105.43 97.5155 107.482 94.7855 109.574 92.2555C111.678 89.7755 113.798 87.3955 115.966 85.2555C120.282 80.8955 124.71 77.1955 129.17 73.8155C138.098 67.0655 147.19 61.7855 156.302 56.9755C163.71 53.1255 167.546 50.5255 167.566 49.6055C167.578 48.7455 163.782 49.5155 156.002 53.4455Z" fill="#EFF1F0"/>
<path d="M148.521 85.8267C143.209 85.8967 137.901 86.7767 132.629 88.4467C127.361 90.1367 122.113 92.5767 116.989 96.3567C114.429 98.2567 111.901 100.497 109.457 103.317C108.245 104.787 107.037 106.297 105.893 108.157C105.309 109.017 104.765 110.067 104.205 111.047C103.677 112.147 103.129 113.177 102.645 114.437C101.657 116.847 100.753 119.637 100.157 122.897C99.5615 126.017 99.1574 129.527 99.1254 133.157C99.1094 136.787 99.5215 140.457 100.281 143.497C101.017 146.587 102.029 149.087 103.105 151.237C105.277 155.507 107.741 158.427 110.229 160.887C112.725 163.337 115.289 165.247 117.865 166.927C123.025 170.237 128.261 172.507 133.505 174.427C144.001 178.187 154.561 180.307 165.093 182.377C167.405 182.837 167.433 181.907 165.125 181.427C154.649 179.257 144.117 176.877 133.669 172.787C128.449 170.717 123.241 168.257 118.141 164.797C115.593 163.057 113.073 161.067 110.637 158.577C108.213 156.087 105.833 153.137 103.825 149.067C102.833 147.027 101.925 144.717 101.305 142.007C100.657 139.337 100.341 136.277 100.365 133.217C100.413 130.147 100.765 127.107 101.329 124.257C101.857 121.447 102.669 118.997 103.585 116.817C104.029 115.687 104.549 114.737 105.045 113.737C105.573 112.827 106.085 111.867 106.649 111.057C107.737 109.337 108.909 107.897 110.081 106.517C112.453 103.847 114.929 101.707 117.445 99.8867C122.477 96.2767 127.657 93.9167 132.857 92.2367C138.061 90.5867 143.297 89.6567 148.529 89.4567C152.773 89.3067 155.013 88.8367 155.081 87.9267C155.149 87.0867 153.021 85.7967 148.521 85.8267Z" fill="#EFF1F0"/>
</svg>
