<svg width="567" height="310" viewBox="0 0 567 310" fill="none" xmlns="http://www.w3.org/2000/svg">
<path d="M366.392 7.91629C327.582 13.4463 288.752 19.0863 250.092 25.9163C230.762 29.3263 211.472 33.0463 192.282 37.2163C173.092 41.3963 153.982 46.0363 135.072 51.4463C116.172 56.8763 97.442 63.0563 79.262 70.7163C70.182 74.5563 61.242 78.7763 52.572 83.5463C48.272 85.9963 43.982 88.4763 39.872 91.2463C37.782 92.5763 35.782 94.0563 33.752 95.4763C32.742 96.2063 31.7719 96.9763 30.7819 97.7263C29.7919 98.4763 28.812 99.2363 27.862 100.046C23.982 103.166 20.3719 106.636 16.9719 110.296C13.5619 113.956 10.5219 117.986 7.91194 122.296L6.93196 123.906C6.61196 124.456 6.34196 125.026 6.05196 125.576C5.49196 126.706 4.84197 127.786 4.38197 128.976C3.90197 130.146 3.35195 131.296 2.92195 132.486C2.54195 133.696 2.09199 134.896 1.77199 136.126C0.411987 141.016 -0.208035 146.146 0.061965 151.246C0.321965 156.336 1.42196 161.386 3.24196 166.116C5.06196 170.846 7.52196 175.296 10.372 179.426C16.102 187.686 23.262 194.766 30.942 201.026C34.792 204.166 38.7719 207.106 42.8519 209.916C46.9419 212.696 51.122 215.346 55.362 217.876C59.612 220.396 63.9319 222.786 68.2819 225.106C72.6519 227.386 77.062 229.606 81.512 231.716C99.332 240.166 117.702 247.316 136.322 253.666C173.582 266.326 211.852 275.886 250.462 283.126C288.982 290.946 327.992 296.236 367.062 300.116C406.142 304.006 445.332 306.556 484.502 308.706C501.692 309.626 501.722 308.696 484.552 307.756C445.582 305.566 406.542 302.936 367.572 298.936C328.612 294.946 289.702 289.516 251.252 281.566C212.702 274.166 174.532 264.466 137.382 251.666C118.822 245.246 100.522 238.016 82.822 229.546C73.982 225.296 65.292 220.716 56.892 215.686C52.702 213.156 48.5619 210.526 44.5319 207.756C40.5119 204.966 36.592 202.036 32.822 198.946C25.282 192.756 18.332 185.806 12.832 177.826C10.102 173.836 7.77197 169.586 6.06196 165.096C4.35196 160.616 3.35197 155.886 3.13197 151.126C2.91197 146.366 3.50196 141.576 4.80196 136.976C5.11196 135.826 5.54199 134.706 5.90199 133.566C6.31199 132.446 6.83195 131.366 7.29195 130.266C7.72195 129.156 8.36198 128.126 8.89198 127.046C9.17198 126.516 9.43196 125.976 9.74196 125.456L10.682 123.916C13.192 119.816 16.122 115.966 19.442 112.446C22.742 108.926 26.262 105.566 30.062 102.546C33.832 99.4863 37.7619 96.6163 41.8519 93.9763C45.9019 91.2763 50.132 88.8463 54.382 86.4563C62.942 81.7863 71.812 77.6463 80.832 73.8663C98.882 66.3363 117.532 60.2563 136.362 54.8863C155.202 49.5463 174.262 44.9563 193.392 40.8163C212.532 36.6763 231.762 32.9863 251.032 29.5863C289.572 22.7763 328.272 17.0963 366.912 11.4663C382.602 9.1763 394.522 7.21631 402.542 5.68631C410.562 4.15631 414.682 3.0763 414.792 2.6163C414.902 2.1463 411.012 2.31629 402.992 3.16629C394.972 4.04629 382.812 5.57629 366.392 7.91629Z" fill="#EFF1F0"/>
<path d="M397.494 5.55691C358.684 11.0869 319.854 16.7269 281.194 23.5569C261.864 26.9669 242.574 30.6869 223.384 34.8569C204.194 39.0369 185.084 43.6769 166.174 49.0869C147.274 54.5169 128.544 60.6969 110.364 68.3569C101.284 72.1969 92.3435 76.4169 83.6735 81.1869C79.3735 83.6369 75.0835 86.1169 70.9735 88.8869C68.8835 90.2169 66.8835 91.6969 64.8535 93.1169C63.8435 93.8469 62.8736 94.6169 61.8836 95.3669C60.8936 96.1169 59.9136 96.8769 58.9636 97.6869C55.0836 100.807 51.4736 104.277 48.0736 107.937C44.6636 111.597 41.6236 115.627 39.0136 119.937L38.0335 121.547C37.7135 122.097 37.4436 122.667 37.1536 123.217C36.5936 124.347 35.9435 125.427 35.4835 126.617C35.0035 127.787 34.4536 128.937 34.0236 130.127C33.6436 131.337 33.1935 132.537 32.8735 133.767C31.5135 138.657 30.8935 143.787 31.1635 148.887C31.4235 153.977 32.5236 159.027 34.3436 163.757C36.1636 168.487 38.6235 172.937 41.4735 177.067C47.2035 185.327 54.3635 192.407 62.0435 198.667C65.8935 201.807 69.8736 204.747 73.9536 207.557C78.0436 210.337 82.2236 212.987 86.4636 215.517C90.7136 218.037 95.0336 220.427 99.3836 222.747C103.754 225.027 108.164 227.247 112.614 229.357C130.434 237.807 148.804 244.957 167.424 251.307C204.684 263.967 242.954 273.527 281.564 280.767C320.084 288.587 359.094 293.877 398.164 297.757C437.244 301.647 476.434 304.197 515.604 306.347C532.794 307.267 532.824 306.337 515.654 305.397C476.684 303.207 437.644 300.577 398.674 296.577C359.714 292.587 320.804 287.157 282.354 279.207C243.804 271.807 205.634 262.107 168.484 249.307C149.924 242.887 131.624 235.657 113.924 227.187C105.084 222.937 96.3935 218.357 87.9935 213.327C83.8035 210.797 79.6636 208.167 75.6336 205.397C71.6136 202.607 67.6935 199.677 63.9235 196.587C56.3835 190.397 49.4335 183.447 43.9335 175.467C41.2035 171.477 38.8735 167.227 37.1635 162.737C35.4535 158.257 34.4535 153.527 34.2335 148.767C34.0135 144.007 34.6036 139.217 35.9036 134.617C36.2136 133.467 36.6436 132.347 37.0036 131.207C37.4136 130.087 37.9336 129.007 38.3936 127.907C38.8236 126.797 39.4635 125.767 39.9935 124.687C40.2735 124.157 40.5336 123.617 40.8436 123.097L41.7835 121.557C44.2935 117.467 47.2235 113.607 50.5435 110.087C53.8435 106.567 57.3635 103.207 61.1635 100.187C64.9335 97.1269 68.8636 94.2569 72.9536 91.6169C77.0036 88.9169 81.2335 86.4869 85.4835 84.0969C94.0435 79.4269 102.914 75.2869 111.934 71.5069C129.984 63.9769 148.634 57.8969 167.464 52.5269C186.304 47.1869 205.364 42.5969 224.494 38.4569C243.634 34.3169 262.864 30.6269 282.134 27.2269C320.674 20.4169 359.373 14.7369 398.013 9.1069C413.703 6.8169 425.624 4.8569 433.643 3.3269C441.663 1.7969 445.784 0.716924 445.893 0.256924C446.003 -0.213076 442.114 -0.0430883 434.094 0.806912C426.064 1.69691 413.914 3.22691 397.494 5.55691Z" fill="#EFF1F0"/>
<path d="M417.845 7.91629C379.035 13.4463 340.205 19.0863 301.545 25.9163C282.215 29.3263 262.925 33.0463 243.735 37.2163C224.545 41.3963 205.435 46.0363 186.525 51.4463C167.625 56.8763 148.895 63.0563 130.715 70.7163C121.635 74.5563 112.695 78.7763 104.025 83.5463C99.7251 85.9963 95.4351 88.4763 91.3251 91.2463C89.2351 92.5763 87.2351 94.0563 85.2051 95.4763C84.1951 96.2063 83.2251 96.9763 82.2351 97.7263C81.2451 98.4763 80.2651 99.2363 79.3151 100.046C75.4351 103.166 71.8251 106.636 68.4251 110.296C65.0151 113.956 61.9751 117.986 59.3651 122.296L58.3851 123.906C58.0651 124.456 57.7951 125.026 57.5051 125.576C56.9451 126.706 56.2951 127.786 55.8351 128.976C55.3551 130.146 54.8051 131.296 54.3751 132.486C53.9951 133.696 53.5451 134.896 53.2251 136.126C51.8651 141.016 51.2451 146.146 51.5151 151.246C51.7751 156.336 52.8751 161.386 54.6951 166.116C56.5151 170.846 58.9751 175.296 61.8251 179.426C67.5551 187.686 74.7151 194.766 82.3951 201.026C86.2451 204.166 90.2251 207.106 94.3051 209.916C98.3951 212.696 102.575 215.346 106.815 217.876C111.065 220.396 115.385 222.786 119.735 225.106C124.105 227.386 128.515 229.606 132.965 231.716C150.785 240.166 169.155 247.316 187.775 253.666C225.035 266.326 263.305 275.886 301.915 283.126C340.435 290.946 379.445 296.236 418.515 300.116C457.595 304.006 496.785 306.556 535.955 308.706C553.145 309.626 553.175 308.696 536.005 307.756C497.035 305.566 457.995 302.936 419.025 298.936C380.065 294.946 341.155 289.516 302.705 281.566C264.155 274.166 225.985 264.466 188.835 251.666C170.275 245.246 151.975 238.016 134.275 229.546C125.435 225.296 116.745 220.716 108.345 215.686C104.155 213.156 100.015 210.526 95.9851 207.756C91.9651 204.966 88.0451 202.036 84.2751 198.946C76.7351 192.756 69.7851 185.806 64.2851 177.826C61.5551 173.836 59.2251 169.586 57.5151 165.096C55.8051 160.616 54.8051 155.886 54.5851 151.126C54.3651 146.366 54.9551 141.576 56.2551 136.976C56.5651 135.826 56.9951 134.706 57.3551 133.566C57.7651 132.446 58.2851 131.366 58.7451 130.266C59.1751 129.156 59.8151 128.126 60.3451 127.046C60.6251 126.516 60.8851 125.976 61.1951 125.456L62.1351 123.916C64.6451 119.826 67.5751 115.966 70.8951 112.446C74.1951 108.926 77.7151 105.566 81.5151 102.546C85.2851 99.4863 89.2151 96.6163 93.3051 93.9763C97.3551 91.2763 101.585 88.8463 105.835 86.4563C114.395 81.7863 123.265 77.6463 132.285 73.8663C150.335 66.3363 168.985 60.2563 187.815 54.8863C206.655 49.5463 225.715 44.9563 244.845 40.8163C263.985 36.6763 283.215 32.9863 302.485 29.5863C341.025 22.7763 379.725 17.0963 418.365 11.4663C434.055 9.1763 445.975 7.21631 453.995 5.68631C462.015 4.15631 466.135 3.0763 466.245 2.6163C466.355 2.1463 462.465 2.31629 454.445 3.16629C446.415 4.04629 434.255 5.57629 417.845 7.91629Z" fill="#EFF1F0"/>
<path d="M339.66 27.0166C310.67 30.6266 281.94 36.1466 253.61 43.2766C225.3 50.4566 197.33 59.2066 170.28 70.4066C156.77 76.0366 143.49 82.2866 130.77 89.6366C124.42 93.3166 118.21 97.2866 112.28 101.667C106.36 106.057 100.69 110.867 95.6897 116.397C90.7197 121.907 86.2997 128.207 83.8997 135.497C83.2897 137.307 82.8397 139.187 82.5597 141.087C82.2497 142.987 82.1497 144.927 82.1997 146.857C82.2997 150.727 83.1897 154.547 84.6097 158.097C86.0797 161.637 88.0398 164.927 90.3398 167.917C92.6398 170.907 95.2297 173.627 97.9897 176.147C103.51 181.167 109.63 185.387 115.97 189.147C128.68 196.647 142.22 202.437 155.95 207.517C159.39 208.787 162.81 210.017 166.32 211.127C169.82 212.237 173.29 213.447 176.8 214.487C183.88 216.367 190.92 218.417 198.07 219.957C226.56 226.567 255.37 231.427 284.2 235.897C341.89 244.757 399.85 251.477 457.68 258.557C470.36 260.137 470.47 259.217 457.8 257.607C400.25 250.467 342.42 243.477 284.81 234.287C256.02 229.647 227.24 224.607 198.85 217.827C191.72 216.247 184.73 214.177 177.7 212.247C176.82 212.017 175.95 211.737 175.09 211.447L172.5 210.587L167.32 208.857C163.86 207.737 160.42 206.487 157.01 205.197C143.38 200.057 129.96 194.227 117.5 186.767C111.29 183.037 105.32 178.867 100.03 173.987C94.7597 169.127 90.1297 163.467 87.4797 156.927C86.1997 153.657 85.4197 150.217 85.3497 146.727C85.2597 143.247 85.8397 139.757 86.9697 136.437C89.1997 129.757 93.3997 123.807 98.2197 118.547C103.07 113.267 108.61 108.597 114.43 104.337C120.26 100.077 126.4 96.2066 132.68 92.5966C145.27 85.4066 158.47 79.2566 171.89 73.7166C198.78 62.6866 226.61 54.0366 254.74 46.9066C282.89 39.8166 311.41 34.2866 340.11 30.5866C351.77 29.1366 360.65 28.0266 366.66 27.2766C372.66 26.4766 375.78 25.8866 375.89 25.4266C376 24.9866 373.1 24.6966 367.08 24.8066C361.06 24.9566 351.92 25.5066 339.66 27.0166Z" fill="#EFF1F0"/>
<path d="M377.41 27.0166C348.42 30.6266 319.69 36.1466 291.36 43.2766C263.05 50.4566 235.08 59.2066 208.03 70.4066C194.52 76.0366 181.24 82.2866 168.52 89.6366C162.17 93.3166 155.96 97.2866 150.03 101.667C144.11 106.057 138.44 110.867 133.44 116.397C128.47 121.907 124.05 128.207 121.65 135.497C121.04 137.307 120.59 139.187 120.31 141.087C120 142.987 119.9 144.927 119.95 146.857C120.05 150.727 120.94 154.547 122.36 158.097C123.83 161.637 125.79 164.927 128.09 167.917C130.39 170.907 132.98 173.627 135.74 176.147C141.26 181.167 147.38 185.387 153.72 189.147C166.43 196.647 179.97 202.437 193.7 207.517C197.14 208.787 200.56 210.017 204.07 211.127C207.57 212.237 211.04 213.447 214.55 214.487C221.63 216.367 228.67 218.417 235.82 219.957C264.31 226.567 293.12 231.427 321.95 235.897C379.64 244.757 437.6 251.477 495.43 258.557C508.11 260.137 508.22 259.217 495.55 257.607C438 250.467 380.17 243.477 322.56 234.287C293.77 229.647 264.99 224.607 236.6 217.827C229.47 216.247 222.48 214.177 215.45 212.247C214.57 212.017 213.7 211.737 212.84 211.447L210.25 210.587L205.07 208.857C201.61 207.737 198.17 206.487 194.76 205.197C181.13 200.057 167.71 194.227 155.25 186.767C149.04 183.037 143.07 178.867 137.78 173.987C132.51 169.127 127.88 163.467 125.23 156.927C123.95 153.657 123.17 150.217 123.1 146.727C123.01 143.247 123.59 139.757 124.72 136.437C126.95 129.757 131.15 123.807 135.97 118.547C140.82 113.267 146.36 108.597 152.18 104.337C158.01 100.077 164.15 96.2066 170.43 92.5966C183.02 85.4066 196.22 79.2566 209.64 73.7166C236.53 62.6866 264.36 54.0366 292.49 46.9066C320.64 39.8166 349.16 34.2866 377.86 30.5866C389.52 29.1366 398.4 28.0266 404.41 27.2766C410.41 26.4766 413.53 25.8866 413.64 25.4266C413.75 24.9866 410.85 24.6966 404.83 24.8066C398.81 24.9566 389.67 25.5066 377.41 27.0166Z" fill="#EFF1F0"/>
<path d="M352.881 53.4455C329.921 58.1655 307.021 63.4155 284.511 70.2255C273.261 73.6355 262.101 77.3855 251.181 81.8255C245.701 83.9955 240.321 86.4255 234.991 88.9755C229.681 91.5555 224.471 94.3755 219.391 97.4155C214.341 100.525 209.441 103.895 204.801 107.635C200.171 111.385 195.871 115.585 192.081 120.245L190.661 121.995L189.361 123.846C188.491 125.076 187.621 126.295 186.851 127.615C185.291 130.225 183.951 132.995 182.981 135.925C182.011 138.855 181.461 141.965 181.431 145.105C181.401 148.245 181.991 151.386 183.031 154.336C184.111 157.276 185.651 160.005 187.471 162.475C189.311 164.935 191.411 167.166 193.651 169.196C198.151 173.246 203.201 176.536 208.421 179.396C218.891 185.106 230.071 189.155 241.371 192.525C264.021 199.175 287.381 202.925 310.751 205.275C334.121 207.695 357.571 209.106 381.031 209.826C392.761 210.186 404.501 210.355 416.231 210.365C427.971 210.375 439.691 210.215 451.411 210.025C474.851 209.645 498.291 209.015 521.701 208.155C531.971 207.765 531.931 206.836 521.671 207.206C498.371 208.016 475.011 208.546 451.621 208.805C439.931 208.925 428.221 209.016 416.511 208.936C404.801 208.846 393.081 208.595 381.371 208.155C357.941 207.265 334.521 205.666 311.201 203.066C287.891 200.536 264.661 196.615 242.251 189.845C231.081 186.415 220.071 182.326 209.911 176.686C204.851 173.866 200.001 170.645 195.781 166.785C193.671 164.855 191.731 162.765 190.071 160.495C188.421 158.215 187.071 155.746 186.141 153.146C185.251 150.536 184.751 147.795 184.821 145.045C184.871 142.295 185.371 139.545 186.281 136.905C187.181 134.265 188.431 131.725 189.911 129.305C190.621 128.085 191.481 126.935 192.301 125.765C192.721 125.185 193.111 124.595 193.551 124.025L194.921 122.365C198.561 117.955 202.721 113.945 207.221 110.335C211.731 106.745 216.531 103.486 221.471 100.476C226.451 97.5155 231.581 94.7855 236.811 92.2555C242.071 89.7755 247.371 87.3955 252.791 85.2555C263.581 80.8955 274.651 77.1955 285.801 73.8155C308.121 67.0655 330.851 61.7855 353.631 56.9755C372.151 53.1255 381.741 50.5255 381.791 49.6055C381.821 48.7455 372.331 49.5155 352.881 53.4455Z" fill="#EFF1F0"/>
<path d="M372.443 53.4455C349.483 58.1655 326.583 63.4155 304.073 70.2255C292.823 73.6355 281.663 77.3855 270.743 81.8255C265.263 83.9955 259.883 86.4255 254.553 88.9755C249.243 91.5555 244.033 94.3755 238.953 97.4155C233.903 100.525 229.003 103.895 224.363 107.635C219.733 111.385 215.433 115.585 211.643 120.245L210.223 121.995L208.923 123.846C208.053 125.076 207.183 126.295 206.413 127.615C204.853 130.225 203.513 132.995 202.543 135.925C201.573 138.855 201.023 141.965 200.993 145.105C200.963 148.245 201.553 151.386 202.593 154.336C203.673 157.276 205.213 160.005 207.033 162.475C208.873 164.935 210.973 167.166 213.213 169.196C217.713 173.246 222.763 176.536 227.983 179.396C238.453 185.106 249.633 189.155 260.933 192.525C283.583 199.175 306.943 202.925 330.313 205.275C353.683 207.695 377.133 209.106 400.593 209.826C412.323 210.186 424.063 210.355 435.793 210.365C447.533 210.375 459.253 210.215 470.973 210.025C494.413 209.645 517.853 209.015 541.263 208.155C551.533 207.765 551.493 206.836 541.233 207.206C517.933 208.016 494.573 208.546 471.183 208.805C459.493 208.925 447.783 209.016 436.073 208.936C424.363 208.846 412.643 208.595 400.933 208.155C377.503 207.265 354.083 205.666 330.763 203.066C307.453 200.536 284.223 196.615 261.813 189.845C250.643 186.415 239.633 182.326 229.473 176.686C224.413 173.866 219.563 170.645 215.343 166.785C213.233 164.855 211.293 162.765 209.633 160.495C207.983 158.215 206.633 155.746 205.703 153.146C204.813 150.536 204.313 147.795 204.383 145.045C204.433 142.295 204.933 139.545 205.843 136.905C206.743 134.265 207.993 131.725 209.473 129.305C210.183 128.085 211.043 126.935 211.863 125.765C212.283 125.185 212.673 124.595 213.113 124.025L214.483 122.365C218.123 117.955 222.283 113.945 226.783 110.335C231.293 106.745 236.093 103.486 241.033 100.476C246.013 97.5155 251.143 94.7855 256.373 92.2555C261.633 89.7755 266.933 87.3955 272.353 85.2555C283.143 80.8955 294.213 77.1955 305.363 73.8155C327.683 67.0655 350.413 61.7855 373.193 56.9755C391.713 53.1255 401.303 50.5255 401.353 49.6055C401.383 48.7455 391.893 49.5155 372.443 53.4455Z" fill="#EFF1F0"/>
<path d="M390.014 53.4455C367.054 58.1655 344.154 63.4155 321.644 70.2255C310.394 73.6355 299.234 77.3855 288.314 81.8255C282.834 83.9955 277.454 86.4255 272.124 88.9755C266.814 91.5555 261.604 94.3755 256.524 97.4155C251.474 100.525 246.574 103.895 241.934 107.635C237.304 111.385 233.004 115.585 229.214 120.245L227.794 121.995L226.494 123.846C225.624 125.076 224.754 126.295 223.984 127.615C222.424 130.225 221.084 132.995 220.114 135.925C219.144 138.855 218.594 141.965 218.564 145.105C218.534 148.245 219.124 151.386 220.164 154.336C221.244 157.276 222.784 160.005 224.604 162.475C226.444 164.935 228.544 167.166 230.784 169.196C235.284 173.246 240.334 176.536 245.554 179.396C256.024 185.106 267.204 189.155 278.504 192.525C301.154 199.175 324.514 202.925 347.884 205.275C371.254 207.695 394.704 209.106 418.164 209.826C429.894 210.186 441.634 210.355 453.364 210.365C465.104 210.375 476.824 210.215 488.544 210.025C511.984 209.645 535.424 209.015 558.834 208.155C569.104 207.765 569.064 206.836 558.804 207.206C535.504 208.016 512.144 208.546 488.754 208.805C477.064 208.925 465.354 209.016 453.644 208.936C441.934 208.846 430.214 208.595 418.504 208.155C395.074 207.265 371.654 205.666 348.334 203.066C325.024 200.536 301.794 196.615 279.384 189.845C268.214 186.415 257.204 182.326 247.044 176.686C241.984 173.866 237.134 170.645 232.914 166.785C230.804 164.855 228.864 162.765 227.204 160.495C225.554 158.215 224.204 155.746 223.274 153.146C222.384 150.536 221.884 147.795 221.954 145.045C222.004 142.295 222.504 139.545 223.414 136.905C224.314 134.265 225.564 131.725 227.044 129.305C227.754 128.085 228.614 126.935 229.434 125.765C229.854 125.185 230.244 124.595 230.684 124.025L232.054 122.365C235.694 117.955 239.854 113.945 244.354 110.335C248.864 106.745 253.664 103.486 258.604 100.476C263.584 97.5155 268.714 94.7855 273.944 92.2555C279.204 89.7755 284.504 87.3955 289.924 85.2555C300.714 80.8955 311.784 77.1955 322.934 73.8155C345.254 67.0655 367.984 61.7855 390.764 56.9755C409.284 53.1255 418.874 50.5255 418.924 49.6055C418.954 48.7455 409.464 49.5155 390.014 53.4455Z" fill="#EFF1F0"/>
<path d="M371.311 85.8267C358.031 85.8967 344.761 86.7767 331.581 88.4467C318.411 90.1367 305.291 92.5767 292.481 96.3567C286.081 98.2567 279.761 100.497 273.651 103.317C270.621 104.787 267.601 106.297 264.741 108.157C263.281 109.017 261.921 110.067 260.521 111.047C259.201 112.147 257.831 113.177 256.621 114.437C254.151 116.847 251.891 119.637 250.401 122.897C248.911 126.017 247.901 129.527 247.821 133.157C247.781 136.787 248.811 140.457 250.711 143.497C252.551 146.587 255.081 149.087 257.771 151.237C263.201 155.507 269.361 158.427 275.581 160.887C281.821 163.337 288.231 165.247 294.671 166.927C307.571 170.237 320.661 172.507 333.771 174.427C360.011 178.187 386.411 180.307 412.741 182.377C418.521 182.837 418.591 181.907 412.821 181.427C386.631 179.257 360.301 176.877 334.181 172.787C321.131 170.717 308.111 168.257 295.361 164.797C288.991 163.057 282.691 161.067 276.601 158.577C270.541 156.087 264.591 153.137 259.571 149.067C257.091 147.027 254.821 144.717 253.271 142.007C251.651 139.337 250.861 136.277 250.921 133.217C251.041 130.147 251.921 127.107 253.331 124.257C254.651 121.447 256.681 118.997 258.971 116.817C260.081 115.687 261.381 114.737 262.621 113.737C263.941 112.827 265.221 111.867 266.631 111.057C269.351 109.337 272.281 107.897 275.211 106.517C281.141 103.847 287.331 101.707 293.621 99.8867C306.201 96.2767 319.151 93.9167 332.151 92.2367C345.161 90.5867 358.251 89.6567 371.331 89.4567C381.941 89.3067 387.541 88.8367 387.711 87.9267C387.881 87.0867 382.561 85.7967 371.311 85.8267Z" fill="#EFF1F0"/>
</svg>
