<svg width="642" height="661" viewBox="0 0 642 661" fill="none" xmlns="http://www.w3.org/2000/svg">
<path d="M0.000244141 327.004C2.20532 236.281 35.5964 154.378 105.844 88.541C133.25 63.0252 164.751 42.8645 197.827 25.5389C229.643 9.15835 263.979 1.5981 299.575 0.338055C355.332 -1.86702 408.569 7.58329 458.341 33.0991C551.899 80.9808 610.176 157.528 633.171 259.592C658.687 372.05 622.776 490.809 539.928 570.822C487.952 620.909 425.894 650.205 354.072 658.395C232.793 672.255 114.664 613.349 49.4569 507.505C16.6958 453.638 0.630265 394.731 0.000244141 327.004Z" fill="#55a0f6"/>
<mask id="mask0_3_2812" style="mask-type:alpha" maskUnits="userSpaceOnUse" x="0" y="0" width="642" height="661">
<path d="M0.000244141 327.004C2.20532 236.281 35.5964 154.378 105.844 88.541C133.25 63.0252 164.751 42.8645 197.827 25.5389C229.643 9.15835 263.979 1.5981 299.575 0.338055C355.332 -1.86702 408.569 7.58329 458.341 33.0991C551.899 80.9808 610.176 157.528 633.171 259.592C658.687 372.05 622.776 490.809 539.928 570.822C487.952 620.909 425.894 650.205 354.072 658.395C232.793 672.255 114.664 613.349 49.4569 507.505C16.6958 453.638 0.630265 394.731 0.000244141 327.004Z" fill="black"/>
</mask>
<g mask="url(#mask0_3_2812)">
<path d="M30.4967 562.164C28.2917 563.424 26.4016 564.684 24.1965 565.945C14.7462 571.93 5.61089 577.915 -3.83942 583.9C-6.35951 585.475 -9.1946 587.05 -12.0297 587.68C-13.9198 587.995 -16.7549 587.05 -18.0149 585.79C-18.9599 584.215 -19.2749 581.065 -18.3299 579.49C-16.7549 576.655 -14.2348 574.45 -11.7147 572.56C1.51576 562.479 14.7462 552.399 28.2916 542.949C88.1436 501.052 149.256 461.046 212.258 423.875C286.915 380.088 361.888 336.302 437.175 293.775C515.298 249.359 596.886 211.243 679.418 175.646C698.004 167.456 716.59 158.951 735.175 150.761C738.955 149.186 742.421 147.296 746.516 146.35C758.486 142.57 767.621 146.35 772.977 157.376C775.812 163.676 778.017 170.606 779.277 177.537C785.892 209.983 787.152 242.429 785.577 275.19C781.482 359.928 753.131 436.16 705.879 505.778C656.423 578.23 591.53 633.672 514.983 675.568C454.501 708.644 390.239 731.01 322.196 741.09C282.82 747.076 243.444 748.651 204.068 741.72C171.306 736.05 140.75 725.025 112.714 707.384C76.8033 685.018 51.2874 653.202 32.7018 616.031C25.4566 601.541 24.5115 586.735 28.9217 571.3C29.5517 569.095 30.1817 566.89 30.4967 564.684C31.1267 563.109 30.8117 562.794 30.4967 562.164Z" fill="#55a0f6"/>
<mask id="mask1_3_2812" style="mask-type:alpha" maskUnits="userSpaceOnUse" x="-19" y="144" width="806" height="603">
<path d="M30.4967 562.164C28.2917 563.424 26.4016 564.684 24.1965 565.945C14.7462 571.93 5.61089 577.915 -3.83942 583.9C-6.35951 585.475 -9.1946 587.05 -12.0297 587.68C-13.9198 587.995 -16.7549 587.05 -18.0149 585.79C-18.9599 584.215 -19.2749 581.065 -18.3299 579.49C-16.7549 576.655 -14.2348 574.45 -11.7147 572.56C1.51576 562.479 14.7462 552.399 28.2916 542.949C88.1436 501.052 149.256 461.046 212.258 423.875C286.915 380.088 361.888 336.302 437.175 293.775C515.298 249.359 596.886 211.243 679.418 175.646C698.004 167.456 716.59 158.951 735.175 150.761C738.955 149.186 742.421 147.296 746.516 146.35C758.486 142.57 767.621 146.35 772.977 157.376C775.812 163.676 778.017 170.606 779.277 177.537C785.892 209.983 787.152 242.429 785.577 275.19C781.482 359.928 753.131 436.16 705.879 505.778C656.423 578.23 591.53 633.672 514.983 675.568C454.501 708.644 390.239 731.01 322.196 741.09C282.82 747.076 243.444 748.651 204.068 741.72C171.306 736.05 140.75 725.025 112.714 707.384C76.8033 685.018 51.2874 653.202 32.7018 616.031C25.4566 601.541 24.5115 586.735 28.9217 571.3C29.5517 569.095 30.1817 566.89 30.4967 564.684C31.1267 563.109 30.8117 562.794 30.4967 562.164Z" fill="#4CA96D"/>
</mask>
<g mask="url(#mask1_3_2812)">
<path d="M633.802 614.608C634.747 611.458 635.692 607.993 636.322 604.843C638.842 587.832 636.952 571.137 635.377 554.441C631.281 512.545 621.516 471.594 612.696 430.327C606.081 400.086 599.465 369.845 597.89 338.659C596.945 316.923 596.63 294.873 597.26 272.822C598.205 235.021 601.985 197.534 608.916 160.048C613.011 138.627 617.736 117.207 625.611 96.4161C630.021 84.4457 635.692 72.7903 643.882 62.7099C648.607 56.7247 654.277 51.9996 661.837 47.2744C661.207 48.8495 661.207 49.7945 660.577 50.1095C645.772 62.0799 637.582 78.4605 631.911 96.101C624.666 117.522 620.256 139.257 617.106 161.623C608.601 217.695 605.451 273.767 607.971 330.469C609.231 356.3 613.956 381.501 619.311 406.701C626.871 443.243 634.747 479.469 641.677 516.325C646.087 539.951 648.922 563.577 648.607 587.517C648.607 593.818 647.977 600.118 647.032 606.418C646.402 610.198 645.142 614.293 643.252 617.758C639.472 625.004 631.911 626.579 626.241 620.909C621.831 616.813 618.051 611.773 615.531 606.418C609.546 593.818 603.876 580.902 598.52 567.672C583.715 529.555 572.374 490.494 561.034 451.118C544.024 393.156 524.808 335.824 503.387 279.437C499.292 268.727 494.567 258.646 489.527 248.251C487.637 244.471 485.117 240.691 482.596 237.541C478.186 232.501 474.406 232.501 469.996 237.541C467.161 241.006 464.641 245.101 463.066 249.196C457.711 260.852 455.191 273.767 453.931 286.367C450.465 317.868 451.41 349.369 452.986 380.871C455.821 435.682 463.381 490.179 469.996 544.676C474.091 578.067 477.871 611.143 478.501 644.849C478.816 668.79 478.501 692.731 473.461 716.357C472.201 722.027 470.626 727.697 468.421 733.052C461.806 748.488 449.205 750.693 437.865 737.777C432.825 732.107 429.045 725.492 425.265 718.877C417.389 704.386 411.719 688.636 406.994 672.57C395.654 634.769 387.148 596.653 379.903 557.906C368.563 496.794 357.537 435.682 346.827 374.255C342.732 350.945 339.582 327.634 335.802 304.008C334.857 298.968 333.597 293.613 331.706 288.572C330.761 285.737 328.556 282.902 327.296 280.382C322.256 281.012 319.421 284.162 317.531 287.312C313.436 294.243 309.026 300.858 305.561 308.103C294.535 331.729 289.81 356.93 287.29 382.446C282.88 428.437 285.4 474.114 290.125 519.79C293.905 555.071 298 590.352 300.205 625.949C302.41 658.395 302.41 690.841 295.165 722.972C293.59 729.272 291.385 735.572 288.865 741.558C286.975 745.968 284.14 749.748 280.675 753.213C273.745 760.143 264.924 760.773 257.679 753.843C252.954 749.118 248.229 743.763 245.394 737.777C239.093 724.547 233.108 710.687 228.068 696.826C215.153 659.97 206.962 621.539 199.402 583.422C191.212 541.211 185.227 498.999 183.022 456.158C181.131 422.452 181.446 388.746 180.501 355.04C180.501 349.999 179.871 344.644 179.241 338.029C174.516 341.809 172.311 345.904 170.106 349.685C160.341 367.64 152.465 386.541 145.85 405.756C127.58 459.308 117.184 514.12 116.869 570.822C116.554 599.488 116.239 628.154 115.294 657.135C114.664 679.5 112.459 701.866 104.899 723.287C103.009 728.957 100.174 734.312 97.3386 739.667C96.0786 741.873 93.8735 744.078 91.6685 745.653C87.8883 748.173 85.6833 746.598 84.4232 740.928C85.0532 741.243 85.9983 741.243 86.3133 741.558C86.9433 741.873 87.2583 742.503 88.2033 743.133C92.2985 740.297 93.8735 736.202 95.7636 732.107C100.804 720.452 103.639 708.166 104.899 695.566C106.474 679.185 107.734 662.49 108.049 645.794C108.679 614.293 108.364 582.792 109.309 551.291C110.569 506.56 119.389 462.773 132.935 419.932C140.495 395.991 149.63 372.995 161.286 350.945C164.436 345.274 167.901 339.604 171.996 334.564C174.201 331.729 177.036 329.524 181.131 330.784C184.912 332.044 186.172 335.194 186.487 338.659C187.432 348.739 188.062 358.82 188.377 368.9C189.322 394.416 189.007 419.932 190.582 445.133C195.622 528.295 209.482 610.198 234.053 689.896C238.463 704.386 244.449 718.247 250.749 732.107C253.269 737.777 257.049 742.818 261.459 747.543C266.184 752.898 271.224 752.583 275.635 747.228C278.785 743.133 282.25 738.407 283.51 733.682C286.66 722.027 289.495 710.372 291.07 698.401C293.905 674.775 294.22 651.15 292.015 627.524C288.235 587.202 283.825 546.881 280.045 506.56C275.95 463.088 274.69 419.617 279.73 376.145C282.565 351.26 288.235 327.004 298.945 304.323C301.78 298.338 304.931 292.668 308.396 287.312C310.286 284.162 312.806 281.012 315.641 278.492C323.516 271.247 331.706 272.192 336.432 281.957C339.267 287.942 341.472 294.558 342.732 301.173C347.142 326.374 350.922 351.26 355.017 376.46C369.508 464.978 383.368 553.496 405.104 640.754C410.144 660.6 416.444 680.445 423.375 699.976C426.84 709.741 432.51 718.877 437.865 728.012C440.07 731.477 443.22 734.627 446.685 737.147C451.41 740.928 454.876 739.982 458.026 734.942C459.916 731.477 461.806 727.697 462.436 723.917C464.641 709.112 467.161 694.621 468.106 679.815C469.996 646.109 466.846 612.718 463.066 579.642C457.081 525.775 450.15 472.224 444.795 418.357C440.7 378.35 439.44 338.344 442.59 298.338C443.85 281.327 446.37 264.632 453.301 249.196C455.821 243.526 458.971 237.856 463.066 233.131C470.941 223.68 481.021 223.995 488.897 233.131C492.992 237.856 496.457 243.211 498.977 249.196C507.797 269.987 516.618 291.093 524.493 312.198C543.078 361.655 556.624 413.002 571.429 463.718C583.4 504.04 596 544.046 612.381 583.107C615.846 591.298 619.626 599.173 624.036 606.733C625.926 610.198 629.076 613.348 631.596 616.498C632.226 614.923 633.172 614.608 633.802 614.608Z" fill="white"/>
</g>
</g>
</svg>
